<mxfile host="app.diagrams.net" agent="Mozilla/5.0 (Windows NT 10.0; Win64; x64) AppleWebKit/537.36 (KHTML, like Gecko) Chrome/129.0.0.0 Safari/537.36" version="24.8.6">
  <diagram name="Trang-1" id="aQJ9DufFynKjjvnOhf8J">
    <mxGraphModel grid="1" page="1" gridSize="10" guides="1" tooltips="1" connect="1" arrows="1" fold="1" pageScale="1" pageWidth="827" pageHeight="1169" math="0" shadow="0">
      <root>
        <mxCell id="0" />
        <mxCell id="1" parent="0" />
        <mxCell id="a5LvB0c_0VNlrtwahAbn-1" value="" style="ellipse;whiteSpace=wrap;html=1;" vertex="1" parent="1">
          <mxGeometry x="95" y="120" width="120" height="80" as="geometry" />
        </mxCell>
        <mxCell id="a5LvB0c_0VNlrtwahAbn-2" value="Bắt đầu chương trình" style="text;strokeColor=none;align=center;fillColor=none;html=1;verticalAlign=middle;whiteSpace=wrap;rounded=0;" vertex="1" parent="1">
          <mxGeometry x="125" y="144" width="60" height="30" as="geometry" />
        </mxCell>
        <mxCell id="a5LvB0c_0VNlrtwahAbn-3" value="" style="endArrow=classic;html=1;rounded=0;exitX=0.5;exitY=1;exitDx=0;exitDy=0;" edge="1" parent="1">
          <mxGeometry width="50" height="50" relative="1" as="geometry">
            <mxPoint x="155" y="199" as="sourcePoint" />
            <mxPoint x="155" y="239" as="targetPoint" />
          </mxGeometry>
        </mxCell>
        <mxCell id="a5LvB0c_0VNlrtwahAbn-4" value="" style="shape=parallelogram;perimeter=parallelogramPerimeter;whiteSpace=wrap;html=1;fixedSize=1;" vertex="1" parent="1">
          <mxGeometry x="95" y="239" width="120" height="60" as="geometry" />
        </mxCell>
        <mxCell id="a5LvB0c_0VNlrtwahAbn-5" value="Nhập điểm" style="text;strokeColor=none;align=center;fillColor=none;html=1;verticalAlign=middle;whiteSpace=wrap;rounded=0;" vertex="1" parent="1">
          <mxGeometry x="125" y="254" width="60" height="30" as="geometry" />
        </mxCell>
        <mxCell id="a5LvB0c_0VNlrtwahAbn-6" value="" style="endArrow=classic;html=1;rounded=0;exitX=0.5;exitY=1;exitDx=0;exitDy=0;exitPerimeter=0;" edge="1" parent="1" source="a5LvB0c_0VNlrtwahAbn-4" target="a5LvB0c_0VNlrtwahAbn-7">
          <mxGeometry width="50" height="50" relative="1" as="geometry">
            <mxPoint x="125" y="339" as="sourcePoint" />
            <mxPoint x="155" y="329" as="targetPoint" />
          </mxGeometry>
        </mxCell>
        <mxCell id="a5LvB0c_0VNlrtwahAbn-7" value="" style="rhombus;whiteSpace=wrap;html=1;" vertex="1" parent="1">
          <mxGeometry x="98" y="329" width="120" height="80" as="geometry" />
        </mxCell>
        <mxCell id="a5LvB0c_0VNlrtwahAbn-8" value="Kiểm tra điểm" style="text;strokeColor=none;align=center;fillColor=none;html=1;verticalAlign=middle;whiteSpace=wrap;rounded=0;" vertex="1" parent="1">
          <mxGeometry x="128" y="354" width="60" height="30" as="geometry" />
        </mxCell>
        <mxCell id="a5LvB0c_0VNlrtwahAbn-9" value="" style="endArrow=classic;html=1;rounded=0;exitX=1;exitY=0.5;exitDx=0;exitDy=0;" edge="1" parent="1" source="a5LvB0c_0VNlrtwahAbn-7">
          <mxGeometry width="50" height="50" relative="1" as="geometry">
            <mxPoint x="165" y="399" as="sourcePoint" />
            <mxPoint x="255" y="369" as="targetPoint" />
          </mxGeometry>
        </mxCell>
        <mxCell id="a5LvB0c_0VNlrtwahAbn-11" value="" style="rounded=0;whiteSpace=wrap;html=1;" vertex="1" parent="1">
          <mxGeometry x="252" y="339" width="120" height="60" as="geometry" />
        </mxCell>
        <mxCell id="a5LvB0c_0VNlrtwahAbn-12" value="điểm &amp;lt;4" style="text;strokeColor=none;align=center;fillColor=none;html=1;verticalAlign=middle;whiteSpace=wrap;rounded=0;" vertex="1" parent="1">
          <mxGeometry x="282" y="354" width="60" height="30" as="geometry" />
        </mxCell>
        <mxCell id="a5LvB0c_0VNlrtwahAbn-13" value="" style="endArrow=classic;html=1;rounded=0;exitX=1;exitY=0.5;exitDx=0;exitDy=0;" edge="1" parent="1" source="a5LvB0c_0VNlrtwahAbn-11" target="a5LvB0c_0VNlrtwahAbn-14">
          <mxGeometry width="50" height="50" relative="1" as="geometry">
            <mxPoint x="430" y="350" as="sourcePoint" />
            <mxPoint x="430" y="370" as="targetPoint" />
          </mxGeometry>
        </mxCell>
        <mxCell id="a5LvB0c_0VNlrtwahAbn-14" value="" style="rounded=0;whiteSpace=wrap;html=1;" vertex="1" parent="1">
          <mxGeometry x="410" y="339" width="120" height="60" as="geometry" />
        </mxCell>
        <mxCell id="a5LvB0c_0VNlrtwahAbn-15" value="Không đạt" style="text;strokeColor=none;align=center;fillColor=none;html=1;verticalAlign=middle;whiteSpace=wrap;rounded=0;" vertex="1" parent="1">
          <mxGeometry x="440" y="354" width="60" height="30" as="geometry" />
        </mxCell>
        <mxCell id="a5LvB0c_0VNlrtwahAbn-16" value="" style="rounded=0;whiteSpace=wrap;html=1;" vertex="1" parent="1">
          <mxGeometry x="251" y="440" width="120" height="60" as="geometry" />
        </mxCell>
        <mxCell id="a5LvB0c_0VNlrtwahAbn-17" value="" style="rounded=0;whiteSpace=wrap;html=1;" vertex="1" parent="1">
          <mxGeometry x="410" y="440" width="120" height="60" as="geometry" />
        </mxCell>
        <mxCell id="a5LvB0c_0VNlrtwahAbn-18" value="4 &amp;lt;= điểm &amp;lt; 6" style="text;strokeColor=none;align=center;fillColor=none;html=1;verticalAlign=middle;whiteSpace=wrap;rounded=0;" vertex="1" parent="1">
          <mxGeometry x="260" y="455" width="100" height="30" as="geometry" />
        </mxCell>
        <mxCell id="a5LvB0c_0VNlrtwahAbn-19" value="" style="endArrow=classic;html=1;rounded=0;exitX=1;exitY=0.5;exitDx=0;exitDy=0;" edge="1" parent="1" source="a5LvB0c_0VNlrtwahAbn-16" target="a5LvB0c_0VNlrtwahAbn-17">
          <mxGeometry width="50" height="50" relative="1" as="geometry">
            <mxPoint x="586" y="350" as="sourcePoint" />
            <mxPoint x="636" y="300" as="targetPoint" />
          </mxGeometry>
        </mxCell>
        <mxCell id="a5LvB0c_0VNlrtwahAbn-20" value="Trung bình" style="text;strokeColor=none;align=center;fillColor=none;html=1;verticalAlign=middle;whiteSpace=wrap;rounded=0;" vertex="1" parent="1">
          <mxGeometry x="446" y="455" width="60" height="30" as="geometry" />
        </mxCell>
        <mxCell id="a5LvB0c_0VNlrtwahAbn-23" value="" style="ellipse;whiteSpace=wrap;html=1;" vertex="1" parent="1">
          <mxGeometry x="558" y="800" width="120" height="80" as="geometry" />
        </mxCell>
        <mxCell id="a5LvB0c_0VNlrtwahAbn-24" value="Kết thúc chương trình" style="text;strokeColor=none;align=center;fillColor=none;html=1;verticalAlign=middle;whiteSpace=wrap;rounded=0;" vertex="1" parent="1">
          <mxGeometry x="588" y="825" width="60" height="30" as="geometry" />
        </mxCell>
        <mxCell id="a5LvB0c_0VNlrtwahAbn-26" value="" style="rounded=0;whiteSpace=wrap;html=1;" vertex="1" parent="1">
          <mxGeometry x="252" y="537" width="120" height="60" as="geometry" />
        </mxCell>
        <mxCell id="a5LvB0c_0VNlrtwahAbn-27" value="" style="rounded=0;whiteSpace=wrap;html=1;" vertex="1" parent="1">
          <mxGeometry x="411" y="537" width="120" height="60" as="geometry" />
        </mxCell>
        <mxCell id="a5LvB0c_0VNlrtwahAbn-28" value="6 &amp;lt;= điểm &amp;lt; 8" style="text;strokeColor=none;align=center;fillColor=none;html=1;verticalAlign=middle;whiteSpace=wrap;rounded=0;" vertex="1" parent="1">
          <mxGeometry x="261" y="552" width="100" height="30" as="geometry" />
        </mxCell>
        <mxCell id="a5LvB0c_0VNlrtwahAbn-29" value="" style="endArrow=classic;html=1;rounded=0;exitX=1;exitY=0.5;exitDx=0;exitDy=0;" edge="1" parent="1" source="a5LvB0c_0VNlrtwahAbn-26" target="a5LvB0c_0VNlrtwahAbn-27">
          <mxGeometry width="50" height="50" relative="1" as="geometry">
            <mxPoint x="587" y="447" as="sourcePoint" />
            <mxPoint x="637" y="397" as="targetPoint" />
          </mxGeometry>
        </mxCell>
        <mxCell id="a5LvB0c_0VNlrtwahAbn-30" value="Khá" style="text;strokeColor=none;align=center;fillColor=none;html=1;verticalAlign=middle;whiteSpace=wrap;rounded=0;" vertex="1" parent="1">
          <mxGeometry x="447" y="552" width="60" height="30" as="geometry" />
        </mxCell>
        <mxCell id="a5LvB0c_0VNlrtwahAbn-31" value="" style="rounded=0;whiteSpace=wrap;html=1;" vertex="1" parent="1">
          <mxGeometry x="252" y="644" width="120" height="60" as="geometry" />
        </mxCell>
        <mxCell id="a5LvB0c_0VNlrtwahAbn-32" value="" style="rounded=0;whiteSpace=wrap;html=1;" vertex="1" parent="1">
          <mxGeometry x="411" y="644" width="120" height="60" as="geometry" />
        </mxCell>
        <mxCell id="a5LvB0c_0VNlrtwahAbn-33" value="8 &amp;lt;= điểm &amp;lt; 9" style="text;strokeColor=none;align=center;fillColor=none;html=1;verticalAlign=middle;whiteSpace=wrap;rounded=0;" vertex="1" parent="1">
          <mxGeometry x="261" y="659" width="100" height="30" as="geometry" />
        </mxCell>
        <mxCell id="a5LvB0c_0VNlrtwahAbn-34" value="" style="endArrow=classic;html=1;rounded=0;exitX=1;exitY=0.5;exitDx=0;exitDy=0;" edge="1" parent="1" source="a5LvB0c_0VNlrtwahAbn-31" target="a5LvB0c_0VNlrtwahAbn-32">
          <mxGeometry width="50" height="50" relative="1" as="geometry">
            <mxPoint x="587" y="554" as="sourcePoint" />
            <mxPoint x="637" y="504" as="targetPoint" />
          </mxGeometry>
        </mxCell>
        <mxCell id="a5LvB0c_0VNlrtwahAbn-35" value="giỏi" style="text;strokeColor=none;align=center;fillColor=none;html=1;verticalAlign=middle;whiteSpace=wrap;rounded=0;" vertex="1" parent="1">
          <mxGeometry x="447" y="659" width="60" height="30" as="geometry" />
        </mxCell>
        <mxCell id="a5LvB0c_0VNlrtwahAbn-36" value="" style="rounded=0;whiteSpace=wrap;html=1;" vertex="1" parent="1">
          <mxGeometry x="252" y="743" width="120" height="60" as="geometry" />
        </mxCell>
        <mxCell id="a5LvB0c_0VNlrtwahAbn-37" value="" style="rounded=0;whiteSpace=wrap;html=1;" vertex="1" parent="1">
          <mxGeometry x="411" y="743" width="120" height="60" as="geometry" />
        </mxCell>
        <mxCell id="a5LvB0c_0VNlrtwahAbn-38" value="9&amp;lt;= điểm &amp;lt;=10" style="text;strokeColor=none;align=center;fillColor=none;html=1;verticalAlign=middle;whiteSpace=wrap;rounded=0;" vertex="1" parent="1">
          <mxGeometry x="261" y="758" width="100" height="30" as="geometry" />
        </mxCell>
        <mxCell id="a5LvB0c_0VNlrtwahAbn-39" value="" style="endArrow=classic;html=1;rounded=0;exitX=1;exitY=0.5;exitDx=0;exitDy=0;" edge="1" parent="1" source="a5LvB0c_0VNlrtwahAbn-36" target="a5LvB0c_0VNlrtwahAbn-37">
          <mxGeometry width="50" height="50" relative="1" as="geometry">
            <mxPoint x="587" y="653" as="sourcePoint" />
            <mxPoint x="637" y="603" as="targetPoint" />
          </mxGeometry>
        </mxCell>
        <mxCell id="a5LvB0c_0VNlrtwahAbn-40" value="Xuất sắc" style="text;strokeColor=none;align=center;fillColor=none;html=1;verticalAlign=middle;whiteSpace=wrap;rounded=0;" vertex="1" parent="1">
          <mxGeometry x="447" y="758" width="60" height="30" as="geometry" />
        </mxCell>
        <mxCell id="a5LvB0c_0VNlrtwahAbn-41" value="" style="endArrow=none;html=1;rounded=0;exitX=0.5;exitY=1;exitDx=0;exitDy=0;" edge="1" parent="1" source="a5LvB0c_0VNlrtwahAbn-7">
          <mxGeometry width="50" height="50" relative="1" as="geometry">
            <mxPoint x="350" y="590" as="sourcePoint" />
            <mxPoint x="160" y="780" as="targetPoint" />
          </mxGeometry>
        </mxCell>
        <mxCell id="a5LvB0c_0VNlrtwahAbn-42" value="" style="endArrow=classic;html=1;rounded=0;" edge="1" parent="1">
          <mxGeometry width="50" height="50" relative="1" as="geometry">
            <mxPoint x="160" y="470" as="sourcePoint" />
            <mxPoint x="250" y="470" as="targetPoint" />
          </mxGeometry>
        </mxCell>
        <mxCell id="a5LvB0c_0VNlrtwahAbn-43" value="" style="endArrow=classic;html=1;rounded=0;entryX=0;entryY=0.5;entryDx=0;entryDy=0;" edge="1" parent="1" target="a5LvB0c_0VNlrtwahAbn-26">
          <mxGeometry width="50" height="50" relative="1" as="geometry">
            <mxPoint x="160" y="570" as="sourcePoint" />
            <mxPoint x="400" y="540" as="targetPoint" />
          </mxGeometry>
        </mxCell>
        <mxCell id="a5LvB0c_0VNlrtwahAbn-44" value="" style="endArrow=classic;html=1;rounded=0;entryX=-0.01;entryY=0.614;entryDx=0;entryDy=0;entryPerimeter=0;" edge="1" parent="1" target="a5LvB0c_0VNlrtwahAbn-31">
          <mxGeometry width="50" height="50" relative="1" as="geometry">
            <mxPoint x="160" y="680" as="sourcePoint" />
            <mxPoint x="400" y="540" as="targetPoint" />
          </mxGeometry>
        </mxCell>
        <mxCell id="a5LvB0c_0VNlrtwahAbn-45" value="" style="endArrow=classic;html=1;rounded=0;" edge="1" parent="1">
          <mxGeometry width="50" height="50" relative="1" as="geometry">
            <mxPoint x="160" y="780" as="sourcePoint" />
            <mxPoint x="250" y="780" as="targetPoint" />
          </mxGeometry>
        </mxCell>
        <mxCell id="a5LvB0c_0VNlrtwahAbn-46" value="" style="endArrow=classic;html=1;rounded=0;exitX=1;exitY=0.5;exitDx=0;exitDy=0;" edge="1" parent="1" source="a5LvB0c_0VNlrtwahAbn-14">
          <mxGeometry width="50" height="50" relative="1" as="geometry">
            <mxPoint x="210" y="540" as="sourcePoint" />
            <mxPoint x="600" y="369" as="targetPoint" />
          </mxGeometry>
        </mxCell>
        <mxCell id="a5LvB0c_0VNlrtwahAbn-47" value="" style="endArrow=none;html=1;rounded=0;exitX=0.375;exitY=0.042;exitDx=0;exitDy=0;exitPerimeter=0;" edge="1" parent="1" source="a5LvB0c_0VNlrtwahAbn-23">
          <mxGeometry width="50" height="50" relative="1" as="geometry">
            <mxPoint x="210" y="540" as="sourcePoint" />
            <mxPoint x="600" y="370" as="targetPoint" />
          </mxGeometry>
        </mxCell>
        <mxCell id="a5LvB0c_0VNlrtwahAbn-48" value="" style="endArrow=classic;html=1;rounded=0;exitX=1;exitY=0.5;exitDx=0;exitDy=0;" edge="1" parent="1" source="a5LvB0c_0VNlrtwahAbn-17">
          <mxGeometry width="50" height="50" relative="1" as="geometry">
            <mxPoint x="210" y="540" as="sourcePoint" />
            <mxPoint x="600" y="470" as="targetPoint" />
          </mxGeometry>
        </mxCell>
        <mxCell id="a5LvB0c_0VNlrtwahAbn-49" value="" style="endArrow=classic;html=1;rounded=0;exitX=1;exitY=0.5;exitDx=0;exitDy=0;" edge="1" parent="1" source="a5LvB0c_0VNlrtwahAbn-27">
          <mxGeometry width="50" height="50" relative="1" as="geometry">
            <mxPoint x="210" y="540" as="sourcePoint" />
            <mxPoint x="600" y="567" as="targetPoint" />
          </mxGeometry>
        </mxCell>
        <mxCell id="a5LvB0c_0VNlrtwahAbn-50" value="" style="endArrow=classic;html=1;rounded=0;exitX=1;exitY=0.5;exitDx=0;exitDy=0;" edge="1" parent="1" source="a5LvB0c_0VNlrtwahAbn-32">
          <mxGeometry width="50" height="50" relative="1" as="geometry">
            <mxPoint x="210" y="540" as="sourcePoint" />
            <mxPoint x="600" y="674" as="targetPoint" />
          </mxGeometry>
        </mxCell>
        <mxCell id="a5LvB0c_0VNlrtwahAbn-51" value="" style="endArrow=classic;html=1;rounded=0;exitX=1;exitY=0.5;exitDx=0;exitDy=0;" edge="1" parent="1" source="a5LvB0c_0VNlrtwahAbn-37">
          <mxGeometry width="50" height="50" relative="1" as="geometry">
            <mxPoint x="210" y="540" as="sourcePoint" />
            <mxPoint x="600" y="773" as="targetPoint" />
          </mxGeometry>
        </mxCell>
      </root>
    </mxGraphModel>
  </diagram>
</mxfile>
